<svg width="100" height="100" viewBox="0 0 100 100" fill="none" xmlns="http://www.w3.org/2000/svg">
<path d="M7.20558 65H1.06921L12.2417 33.2645H19.3388L30.5269 65H24.3905L15.9143 39.7727H15.6663L7.20558 65ZM7.40703 52.5568H24.1426V57.1746H7.40703V52.5568ZM44.8528 41.1983V45.5372H31.1699V41.1983H44.8528ZM34.548 35.4959H40.1575V57.8409C40.1575 58.595 40.2712 59.1736 40.4985 59.5764C40.7361 59.969 41.046 60.2376 41.4282 60.3822C41.8104 60.5269 42.234 60.5992 42.6989 60.5992C43.0501 60.5992 43.3704 60.5733 43.6596 60.5217C43.9592 60.47 44.1865 60.4236 44.3414 60.3822L45.2867 64.7676C44.9871 64.8709 44.5584 64.9845 44.0005 65.1085C43.453 65.2324 42.7815 65.3048 41.9861 65.3254C40.5811 65.3667 39.3156 65.155 38.1896 64.6901C37.0635 64.2149 36.1699 63.4814 35.5088 62.4897C34.858 61.4979 34.5377 60.2583 34.548 58.7707V35.4959ZM59.6707 65.4649C57.3463 65.4649 55.3319 64.9535 53.6273 63.9308C51.9228 62.9081 50.6005 61.4773 49.6604 59.6384C48.7306 57.7996 48.2658 55.6508 48.2658 53.1921C48.2658 50.7335 48.7306 48.5795 49.6604 46.7304C50.6005 44.8812 51.9228 43.4452 53.6273 42.4225C55.3319 41.3998 57.3463 40.8884 59.6707 40.8884C61.9951 40.8884 64.0096 41.3998 65.7141 42.4225C67.4186 43.4452 68.7358 44.8812 69.6655 46.7304C70.6056 48.5795 71.0757 50.7335 71.0757 53.1921C71.0757 55.6508 70.6056 57.7996 69.6655 59.6384C68.7358 61.4773 67.4186 62.9081 65.7141 63.9308C64.0096 64.9535 61.9951 65.4649 59.6707 65.4649ZM59.7017 60.9711C60.962 60.9711 62.0158 60.625 62.8629 59.9329C63.71 59.2304 64.3401 58.2903 64.7534 57.1126C65.1769 55.9349 65.3887 54.6229 65.3887 53.1767C65.3887 51.72 65.1769 50.4029 64.7534 49.2252C64.3401 48.0372 63.71 47.0919 62.8629 46.3895C62.0158 45.687 60.962 45.3357 59.7017 45.3357C58.4104 45.3357 57.336 45.687 56.4786 46.3895C55.6315 47.0919 54.9961 48.0372 54.5726 49.2252C54.1593 50.4029 53.9527 51.72 53.9527 53.1767C53.9527 54.6229 54.1593 55.9349 54.5726 57.1126C54.9961 58.2903 55.6315 59.2304 56.4786 59.9329C57.336 60.625 58.4104 60.9711 59.7017 60.9711ZM81.4463 51.0537V65H75.8368V41.1983H81.1983V45.2428H81.4773C82.0248 43.9101 82.8977 42.8512 84.0961 42.0661C85.3048 41.281 86.7975 40.8884 88.5744 40.8884C90.2169 40.8884 91.6477 41.2397 92.8667 41.9421C94.0961 42.6446 95.0465 43.6622 95.718 44.9948C96.3998 46.3275 96.7355 47.9442 96.7252 49.845V65H91.1157V50.7128C91.1157 49.1219 90.7025 47.8771 89.876 46.9783C89.0599 46.0795 87.9287 45.6302 86.4824 45.6302C85.501 45.6302 84.6281 45.8471 83.8636 46.281C83.1095 46.7045 82.5155 47.3192 82.0816 48.125C81.6581 48.9308 81.4463 49.907 81.4463 51.0537Z" fill="white"/>
</svg>
